<svg version="1.1" id="Layer_1" xmlns="http://www.w3.org/2000/svg" xmlns:xlink="http://www.w3.org/1999/xlink" x="0px" y="0px"
	 width="100%" viewBox="0 0 2751 268" enable-background="new 0 0 2751 268" xml:space="preserve">
<path fill="#FEFEFE" opacity="1.000000" stroke="none" 
	d="
M1.000004,253.000000 
	C1.000000,169.010864 1.000000,85.021736 1.000000,1.055671 
	C918.000000,1.055671 1835.000000,1.055671 2752.000000,1.055671 
	C2752.000000,60.770264 2752.000000,120.429184 2751.675293,180.426468 
	C2747.529541,172.978119 2741.685791,166.996780 2733.745117,163.781235 
	C2725.931396,160.616959 2717.808105,157.993576 2709.599609,156.082092 
	C2698.108887,153.406204 2686.352295,151.883270 2674.830811,149.322006 
	C2669.036377,148.033875 2663.502930,145.370392 2663.131836,138.166290 
	C2662.854736,132.787735 2668.067627,127.937813 2675.920166,126.014877 
	C2686.122559,123.516624 2696.535889,123.505180 2706.655029,125.722351 
	C2716.301025,127.835999 2725.645264,131.327759 2735.737061,134.400940 
	C2740.208252,124.821228 2745.011475,114.529770 2750.029053,103.779510 
	C2745.530518,101.788635 2741.834229,99.892136 2737.960693,98.482628 
	C2718.851562,91.528816 2699.029053,89.544067 2678.918213,91.240639 
	C2663.286621,92.559319 2648.402100,96.652840 2636.038330,107.099602 
	C2623.132812,118.004295 2618.967285,132.184067 2621.403564,148.422318 
	C2623.752441,164.076691 2633.733398,173.814316 2648.124268,178.481079 
	C2658.820557,181.949707 2670.102051,183.621552 2681.132080,186.051376 
	C2689.236572,187.836670 2697.423340,189.297943 2705.441162,191.407516 
	C2709.510742,192.478241 2712.492432,195.538712 2712.609619,200.061310 
	C2712.727295,204.587708 2710.463135,208.130844 2706.289062,209.999161 
	C2703.435303,211.276520 2700.357666,212.797363 2697.353027,212.857758 
	C2687.576172,213.054260 2677.699707,213.378403 2668.023193,212.258499 
	C2655.249756,210.780167 2643.307373,206.030518 2631.759521,199.280441 
	C2626.773438,210.054749 2621.994141,220.381775 2617.186279,230.771072 
	C2618.393311,231.673676 2619.124512,232.358536 2619.974365,232.828629 
	C2622.010986,233.955170 2624.053223,235.096420 2626.181885,236.028976 
	C2649.311279,246.161987 2673.579102,249.346817 2698.491455,246.653488 
	C2720.594238,244.263855 2740.332031,236.973648 2752.000000,216.000000 
	C2752.000000,233.663986 2752.000000,251.327988 2752.000000,268.962708 
	C1835.000000,268.962708 918.000000,268.962708 1.000000,268.962708 
	C1.000000,265.925842 1.000000,262.926270 1.465863,259.407471 
	C28.457979,258.888214 54.984230,258.888214 82.915756,258.888214 
	C68.242325,245.174545 58.468292,230.013657 54.070061,211.721680 
	C49.724667,193.649429 51.140553,175.810928 56.964314,158.048279 
	C54.659283,160.050400 53.165585,162.187805 51.893311,164.449738 
	C41.129700,183.586121 30.511337,202.805054 19.629654,221.873810 
	C13.637856,232.373672 7.223727,242.632507 1.000004,253.000000 
M123.065414,109.348557 
	C122.713165,108.894981 122.360909,108.441406 121.830757,107.317581 
	C116.063408,98.277206 110.296066,89.236832 104.170380,79.634750 
	C103.153740,81.198601 102.542297,81.939552 102.144119,82.781380 
	C95.537987,96.748268 88.665642,110.599434 82.466370,124.745346 
	C77.547157,135.970306 73.459457,147.559677 68.622971,159.634521 
	C67.156441,168.089935 65.689903,176.545349 64.035751,185.914032 
	C63.094654,198.583435 66.226593,210.111694 73.826401,220.935547 
	C74.182671,221.300629 74.538933,221.665710 75.000946,222.652603 
	C75.669624,223.423584 76.338303,224.194565 77.147552,225.529007 
	C77.700867,226.039719 78.254173,226.550446 78.998070,227.676315 
	C79.633102,228.226898 80.268135,228.777496 81.050804,229.759430 
	C81.050804,229.759430 81.433052,230.007919 81.608673,230.553421 
	C82.387634,231.092758 83.166595,231.632111 84.124741,232.624802 
	C84.354347,232.889893 84.644356,233.015167 85.275574,233.566132 
	C86.166672,234.077621 87.057777,234.589111 87.988335,235.024338 
	C87.988335,235.024338 87.908775,235.056625 88.271095,235.645920 
	C103.551407,246.272369 127.426796,244.495712 141.233215,231.098373 
	C158.058670,214.771469 161.903915,194.985413 155.280792,172.071426 
	C155.202560,171.054901 155.124344,170.038391 155.130692,168.277588 
	C154.462433,166.497543 153.794174,164.717499 153.149506,162.185333 
	C150.333084,156.493484 147.516663,150.801651 144.550308,144.455597 
	C141.316055,139.320129 138.081802,134.184662 134.786682,128.358292 
	C130.892242,122.198761 126.997795,116.039230 123.053871,109.922981 
	C123.053871,109.922981 123.114571,109.940620 123.065414,109.348557 
M859.403809,80.967651 
	C865.175781,81.706696 871.012695,82.118813 876.706848,83.249634 
	C890.561401,86.001068 894.685791,90.501045 895.992798,103.421623 
	C896.103638,104.516876 896.324951,105.600945 896.471497,106.540184 
	C911.401001,106.540184 925.964050,106.540184 941.160034,106.540184 
	C940.704346,99.654678 940.616943,93.161720 939.785583,86.765427 
	C937.520203,69.334106 928.059937,57.304962 910.927124,53.059372 
	C898.595642,50.003586 885.819641,47.614990 873.168579,47.207947 
	C846.046265,46.335289 818.868225,46.527412 791.729187,47.080933 
	C773.789062,47.446838 755.893250,49.116970 738.631470,54.892036 
	C725.175659,59.393787 716.816956,68.524300 713.033325,81.937111 
	C709.203674,95.513176 708.019897,109.277908 709.843323,123.394150 
	C712.202332,141.656723 722.519104,155.185913 740.534912,158.895996 
	C754.775818,161.828705 769.509277,163.176804 784.069580,163.578934 
	C812.213440,164.356262 840.397461,163.627823 868.547058,164.283981 
	C876.507080,164.469543 884.545532,166.813751 892.282227,169.076721 
	C897.291809,170.541977 900.285095,174.847107 901.137085,180.244568 
	C903.296570,193.925873 898.562683,207.575974 878.600769,210.042038 
	C852.748718,213.235764 826.830872,214.550140 800.829346,213.754822 
	C790.876526,213.450409 780.889587,212.422897 771.045288,210.902069 
	C760.102173,209.211487 755.357666,203.106552 754.934387,192.028671 
	C754.822937,189.111893 754.590027,186.199783 754.421021,183.419373 
	C739.211792,183.419373 724.632019,183.419373 709.947388,183.419373 
	C709.947388,190.541428 709.734924,197.326767 709.987671,204.094742 
	C710.709595,223.427353 721.556335,237.429489 740.344177,241.787018 
	C750.312378,244.098969 760.692810,245.567947 770.909851,245.703033 
	C806.066956,246.167923 841.236450,246.105759 876.395813,245.733398 
	C886.817444,245.623001 897.312866,244.384399 907.613892,242.688080 
	C927.964783,239.336823 942.105896,228.211853 945.513184,207.170258 
	C947.328796,195.957657 947.647583,184.245850 946.761841,172.906235 
	C944.934998,149.519730 931.994751,135.916061 908.779297,132.096863 
	C898.143188,130.347107 887.297058,129.323578 876.521057,129.079651 
	C846.710510,128.404907 816.883606,128.468277 787.070496,127.873901 
	C780.319397,127.739296 773.524170,126.472946 766.884033,125.083496 
	C760.643066,123.777588 756.522217,119.336708 755.452271,113.182663 
	C753.197693,100.215370 755.406128,88.152328 771.881104,84.746292 
	C774.639893,84.175949 777.372925,83.381516 780.160339,83.064247 
	C806.198486,80.100578 832.298645,79.194870 859.403809,80.967651 
M1248.898560,200.500000 
	C1248.898560,149.746002 1248.898560,98.992012 1248.898560,48.182266 
	C1233.279663,48.182266 1218.354370,48.182266 1202.777588,48.182266 
	C1202.777588,74.311211 1202.777588,100.176033 1202.777588,125.904114 
	C1150.573730,125.904114 1099.025024,125.904114 1046.950684,125.904114 
	C1046.950684,99.739647 1046.950684,74.007805 1046.950684,48.285851 
	C1031.528809,48.285851 1016.638733,48.285851 1001.353271,48.285851 
	C1001.353271,50.628551 1001.353271,52.600006 1001.353271,54.571457 
	C1001.353333,114.894608 1001.353577,175.217758 1001.353027,235.540909 
	C1001.352905,245.694443 1001.351318,245.686859 1011.638916,245.679123 
	C1023.264587,245.670395 1034.890259,245.677109 1047.192017,245.677109 
	C1047.192017,217.966202 1047.192017,190.763855 1047.192017,163.484558 
	C1099.434448,163.484558 1150.992432,163.484558 1202.991089,163.484558 
	C1202.991089,190.910477 1202.991089,218.004959 1202.991089,245.315353 
	C1218.483154,245.315353 1233.531494,245.315353 1248.898438,245.315353 
	C1248.898438,230.462097 1248.898438,215.981049 1248.898560,200.500000 
M1386.276855,77.761406 
	C1354.424438,133.411850 1322.572021,189.062286 1290.569824,244.974396 
	C1291.721802,245.347427 1292.158081,245.611328 1292.595093,245.612503 
	C1308.092896,245.653717 1323.592285,245.775879 1339.085815,245.530441 
	C1340.671143,245.505341 1342.776367,243.578537 1343.697754,241.988129 
	C1349.702271,231.624084 1355.533569,221.156143 1361.218262,210.612579 
	C1362.753540,207.764893 1364.544312,206.714111 1367.848145,206.723068 
	C1412.010010,206.842712 1456.172485,206.851410 1500.334229,206.704559 
	C1503.736572,206.693253 1505.370605,207.984772 1506.886841,210.683884 
	C1512.835693,221.273315 1518.817261,231.850327 1525.127319,242.224884 
	C1526.156006,243.916214 1528.854126,245.427292 1530.862061,245.537460 
	C1538.006104,245.929459 1545.185425,245.677383 1552.351318,245.674423 
	C1560.254028,245.671173 1568.156860,245.673706 1576.593140,245.673706 
	C1575.825684,243.924881 1575.458252,242.844604 1574.907593,241.867538 
	C1539.058716,178.255371 1503.214844,114.640259 1467.216675,51.112484 
	C1466.331421,49.550007 1463.732300,48.082096 1461.914429,48.059971 
	C1443.585815,47.836899 1425.252686,47.987045 1406.922241,47.859493 
	C1404.177002,47.840393 1402.767212,48.827244 1401.490845,51.134212 
	C1396.660156,59.864418 1391.630493,68.484528 1386.276855,77.761406 
M437.229279,245.680389 
	C441.854401,246.539413 444.352295,244.418900 446.484070,240.322815 
	C451.779907,230.147278 457.667664,220.281479 463.171448,210.211349 
	C464.520569,207.742905 466.071472,206.727280 469.005127,206.733765 
	C513.491638,206.832153 557.978516,206.825119 602.465027,206.731903 
	C605.369568,206.725815 606.910339,207.753555 608.288025,210.217941 
	C614.212341,220.815903 620.429688,231.250519 626.318665,241.867599 
	C627.894958,244.709442 629.679993,245.839920 632.983093,245.770081 
	C643.475403,245.548264 653.975098,245.678543 664.471985,245.674088 
	C668.878723,245.672226 673.285400,245.673767 678.584290,245.673767 
	C677.243530,243.202347 676.418335,241.628342 675.545898,240.080933 
	C640.182007,177.350861 604.783752,114.640068 569.535278,51.845230 
	C567.776672,48.712261 565.831970,47.831085 562.484070,47.857590 
	C545.156982,47.994736 527.826965,48.034256 510.501099,47.837101 
	C506.560486,47.792263 504.322968,48.918606 502.290985,52.482750 
	C466.376526,115.476013 430.299103,178.376389 394.274719,241.307007 
	C393.572723,242.533310 393.084991,243.882278 392.265869,245.682663 
	C407.367493,245.682663 421.830627,245.682663 437.229279,245.680389 
M1834.617676,162.102798 
	C1841.567139,153.672882 1845.636597,143.948502 1847.579468,133.267914 
	C1852.738159,104.908707 1843.237549,73.116577 1812.181152,57.632061 
	C1796.741577,49.934082 1780.273926,47.212704 1763.308716,47.080757 
	C1736.149902,46.869522 1708.988159,47.018677 1681.827637,47.035530 
	C1680.385254,47.036427 1678.942871,47.222939 1677.457397,47.326031 
	C1677.457397,113.387756 1677.457397,179.093964 1677.457397,244.775574 
	C1692.739258,244.775574 1707.643188,244.775574 1723.174072,244.775574 
	C1723.174072,226.380264 1723.174072,208.339203 1723.174072,190.067047 
	C1736.123779,190.067047 1748.443359,190.166397 1760.759277,189.995956 
	C1763.772217,189.954254 1765.535156,190.919739 1767.234619,193.408340 
	C1778.317627,209.637177 1789.503418,225.797958 1800.888794,241.815231 
	C1802.070923,243.478119 1804.735107,244.872818 1806.789795,244.987335 
	C1813.766479,245.376236 1820.778320,245.134415 1827.776733,245.134094 
	C1835.678345,245.133728 1843.579956,245.134018 1852.530884,245.134018 
	C1837.485474,223.528488 1823.075684,202.835510 1808.394165,181.752350 
	C1818.437622,176.780228 1827.413086,171.170639 1834.617676,162.102798 
M1983.446411,90.826164 
	C1969.415527,90.252357 1955.960449,92.616943 1943.092285,98.385506 
	C1895.405029,119.762672 1883.053711,185.614594 1919.787964,222.848404 
	C1945.582275,248.993454 1997.171021,255.793365 2030.123779,237.418289 
	C2036.984985,233.592377 2043.175659,228.993637 2048.408203,222.739105 
	C2040.377930,214.038864 2032.641357,205.656784 2024.831055,197.194763 
	C2017.327148,203.967133 2009.431885,208.768326 1999.979126,210.543716 
	C1983.421509,213.653549 1967.727905,212.339035 1954.330933,200.831406 
	C1948.661743,195.961746 1945.156250,189.692596 1943.487305,181.661987 
	C1981.985107,181.661987 2019.881348,181.661987 2057.680176,181.661987 
	C2064.918945,140.341949 2040.594971,93.521751 1983.446411,90.826164 
M2461.142090,101.615929 
	C2457.877686,104.084755 2454.613281,106.553581 2450.431152,109.716522 
	C2450.431152,103.658485 2450.431152,98.492592 2450.431152,93.284866 
	C2436.072510,93.284866 2422.470703,93.284866 2408.575928,93.284866 
	C2408.575928,143.891724 2408.575928,194.256500 2408.575928,244.875702 
	C2423.299316,244.875702 2437.703125,244.875702 2452.686523,244.875702 
	C2452.686523,242.833954 2452.686768,241.047668 2452.686768,239.261368 
	C2452.687256,216.608643 2452.550049,193.954498 2452.781250,171.304138 
	C2452.841797,165.362915 2453.330078,159.243668 2454.848877,153.532486 
	C2460.299316,133.039017 2485.112061,122.441299 2503.983887,132.196121 
	C2514.476318,137.619766 2518.836426,147.104340 2519.065918,158.066696 
	C2519.630615,185.035660 2519.430908,212.020645 2519.536865,238.999191 
	C2519.544434,240.919388 2519.537842,242.839645 2519.537842,244.748764 
	C2534.737305,244.748764 2549.126221,244.748764 2563.922363,244.748764 
	C2563.922363,242.731842 2563.922607,241.093826 2563.922363,239.455811 
	C2563.922119,212.305847 2563.964844,185.155746 2563.879883,158.006058 
	C2563.864990,153.190475 2563.667480,148.323944 2562.954834,143.570831 
	C2559.656982,121.573631 2549.792969,103.778816 2528.053955,95.653610 
	C2505.377930,87.178101 2482.957031,88.796516 2461.142090,101.615929 
M2233.412598,106.801926 
	C2235.165527,103.944153 2233.058838,103.051903 2231.038086,102.046173 
	C2218.326172,95.720390 2204.681641,92.725388 2190.704346,91.450989 
	C2170.941162,89.649033 2151.424072,90.532822 2132.999512,99.173141 
	C2114.975586,107.625580 2104.511475,123.814079 2105.472412,141.804245 
	C2106.535156,161.695618 2115.584717,173.381424 2136.979248,179.849136 
	C2148.375977,183.294373 2160.417725,184.574463 2172.128418,187.023102 
	C2178.453613,188.345612 2184.793945,189.759933 2190.934814,191.732895 
	C2194.501465,192.878876 2197.124268,195.620148 2197.262695,199.888611 
	C2197.399414,204.112167 2195.753906,207.579620 2192.037842,209.399124 
	C2188.658936,211.053467 2184.963623,212.513000 2181.269043,212.996094 
	C2160.146240,215.757690 2140.223145,211.573654 2121.365967,201.879440 
	C2119.815674,201.082458 2118.264893,200.286591 2116.452881,199.355743 
	C2111.418457,210.250931 2106.639404,220.593430 2101.732178,231.213196 
	C2105.004883,232.954880 2107.699463,234.618088 2110.570068,235.880463 
	C2133.506348,245.966766 2157.564941,249.167404 2182.345459,246.754837 
	C2197.958252,245.234802 2212.792480,241.103394 2225.132568,230.630341 
	C2245.411865,213.418991 2244.669678,180.827469 2223.562500,166.567123 
	C2214.851562,160.681992 2204.875244,157.990448 2194.680908,156.027420 
	C2182.603027,153.701645 2170.407471,151.847366 2158.489502,148.878830 
	C2150.528809,146.896042 2147.905029,143.213867 2148.018555,137.980118 
	C2148.130127,132.842529 2151.990723,128.729538 2158.943604,126.505623 
	C2160.838867,125.899391 2162.802979,125.417068 2164.772705,125.149559 
	C2176.802979,123.515518 2188.741455,124.124260 2200.362061,127.655441 
	C2206.971680,129.663879 2213.347168,132.442581 2220.160889,134.999283 
	C2224.477539,125.821068 2228.784912,116.662102 2233.412598,106.801926 
M245.652313,183.823105 
	C211.792038,125.174278 177.931747,66.525444 143.632294,7.115913 
	C133.837601,24.352186 124.489021,40.803429 115.049530,57.414650 
	C121.297691,64.571938 127.730865,71.342041 133.487885,78.645149 
	C152.859024,103.218544 172.685883,127.477394 191.026779,152.806335 
	C211.588058,181.201675 212.792236,227.331528 180.843674,256.191467 
	C180.216156,256.758331 179.859451,257.625000 179.281830,258.494049 
	C215.780136,258.494049 251.812302,258.494049 288.761841,258.494049 
	C274.255188,233.368378 260.135529,208.913010 245.652313,183.823105 
M2294.964600,243.246185 
	C2296.263184,243.876160 2297.545898,245.009125 2298.862793,245.050247 
	C2305.021240,245.242569 2311.189209,245.133423 2317.353760,245.132950 
	C2324.459229,245.132401 2331.564453,245.132812 2338.746582,245.132812 
	C2338.746582,194.122803 2338.746582,143.765015 2338.746582,93.458649 
	C2323.967285,93.458649 2309.584717,93.458649 2294.933350,93.458649 
	C2294.933350,143.342972 2294.933350,192.815613 2294.964600,243.246185 
M168.940918,200.110840 
	C160.612061,240.373306 136.646057,257.970398 94.247932,249.689697 
	C105.955040,257.760559 117.328682,262.310547 129.918106,262.740326 
	C156.273788,263.640106 180.894257,246.516647 189.016815,221.269775 
	C196.801758,197.072220 192.416367,174.091400 177.711487,154.013855 
	C159.233154,128.784164 139.255569,104.652107 119.882736,80.079659 
	C119.096375,79.082230 117.878723,78.424828 116.862007,77.609001 
	C117.076866,80.040321 118.061195,81.686928 119.057022,83.326530 
	C130.549713,102.248924 142.642120,120.838898 153.364548,140.188080 
	C163.435669,158.361954 170.350388,177.783676 168.940918,200.110840 
M2342.016113,35.684681 
	C2334.917236,24.743259 2323.139160,20.331438 2309.336914,23.443905 
	C2297.670410,26.074757 2290.205322,34.653332 2289.650391,46.067387 
	C2289.088623,57.617668 2295.480469,67.035645 2306.988281,70.462753 
	C2318.382812,73.856049 2329.334229,72.680458 2337.913818,63.697414 
	C2345.407471,55.851551 2346.399902,46.374969 2342.016113,35.684681 
z"/>
<path fill="#2D637E" opacity="1.000000" stroke="none" 
	d="
M2752.000000,215.531342 
	C2740.332031,236.973648 2720.594238,244.263855 2698.491455,246.653488 
	C2673.579102,249.346817 2649.311279,246.161987 2626.181885,236.028976 
	C2624.053223,235.096420 2622.010986,233.955170 2619.974365,232.828629 
	C2619.124512,232.358536 2618.393311,231.673676 2617.186279,230.771072 
	C2621.994141,220.381775 2626.773438,210.054749 2631.759521,199.280441 
	C2643.307373,206.030518 2655.249756,210.780167 2668.023193,212.258499 
	C2677.699707,213.378403 2687.576172,213.054260 2697.353027,212.857758 
	C2700.357666,212.797363 2703.435303,211.276520 2706.289062,209.999161 
	C2710.463135,208.130844 2712.727295,204.587708 2712.609619,200.061310 
	C2712.492432,195.538712 2709.510742,192.478241 2705.441162,191.407516 
	C2697.423340,189.297943 2689.236572,187.836670 2681.132080,186.051376 
	C2670.102051,183.621552 2658.820557,181.949707 2648.124268,178.481079 
	C2633.733398,173.814316 2623.752441,164.076691 2621.403564,148.422318 
	C2618.967285,132.184067 2623.132812,118.004295 2636.038330,107.099602 
	C2648.402100,96.652840 2663.286621,92.559319 2678.918213,91.240639 
	C2699.029053,89.544067 2718.851562,91.528816 2737.960693,98.482628 
	C2741.834229,99.892136 2745.530518,101.788635 2750.029053,103.779510 
	C2745.011475,114.529770 2740.208252,124.821228 2735.737061,134.400940 
	C2725.645264,131.327759 2716.301025,127.835999 2706.655029,125.722351 
	C2696.535889,123.505180 2686.122559,123.516624 2675.920166,126.014877 
	C2668.067627,127.937813 2662.854736,132.787735 2663.131836,138.166290 
	C2663.502930,145.370392 2669.036377,148.033875 2674.830811,149.322006 
	C2686.352295,151.883270 2698.108887,153.406204 2709.599609,156.082092 
	C2717.808105,157.993576 2725.931396,160.616959 2733.745117,163.781235 
	C2741.685791,166.996780 2747.529541,172.978119 2751.675293,180.882416 
	C2752.000000,192.354233 2752.000000,203.708450 2752.000000,215.531342 
z"/>
<path fill="#C43734" opacity="1.000000" stroke="none" 
	d="
M1.000004,253.428467 
	C7.223727,242.632507 13.637856,232.373672 19.629654,221.873810 
	C30.511337,202.805054 41.129700,183.586121 51.893311,164.449738 
	C53.165585,162.187805 54.659283,160.050400 56.964314,158.048279 
	C51.140553,175.810928 49.724667,193.649429 54.070061,211.721680 
	C58.468292,230.013657 68.242325,245.174545 82.915756,258.888214 
	C54.984230,258.888214 28.457979,258.888214 1.465863,258.944092 
	C1.000000,257.285645 1.000000,255.571274 1.000004,253.428467 
z"/>
<path fill="#C43430" opacity="1.000000" stroke="none" 
	d="
M858.935669,80.954170 
	C832.298645,79.194870 806.198486,80.100578 780.160339,83.064247 
	C777.372925,83.381516 774.639893,84.175949 771.881104,84.746292 
	C755.406128,88.152328 753.197693,100.215370 755.452271,113.182663 
	C756.522217,119.336708 760.643066,123.777588 766.884033,125.083496 
	C773.524170,126.472946 780.319397,127.739296 787.070496,127.873901 
	C816.883606,128.468277 846.710510,128.404907 876.521057,129.079651 
	C887.297058,129.323578 898.143188,130.347107 908.779297,132.096863 
	C931.994751,135.916061 944.934998,149.519730 946.761841,172.906235 
	C947.647583,184.245850 947.328796,195.957657 945.513184,207.170258 
	C942.105896,228.211853 927.964783,239.336823 907.613892,242.688080 
	C897.312866,244.384399 886.817444,245.623001 876.395813,245.733398 
	C841.236450,246.105759 806.066956,246.167923 770.909851,245.703033 
	C760.692810,245.567947 750.312378,244.098969 740.344177,241.787018 
	C721.556335,237.429489 710.709595,223.427353 709.987671,204.094742 
	C709.734924,197.326767 709.947388,190.541428 709.947388,183.419373 
	C724.632019,183.419373 739.211792,183.419373 754.421021,183.419373 
	C754.590027,186.199783 754.822937,189.111893 754.934387,192.028671 
	C755.357666,203.106552 760.102173,209.211487 771.045288,210.902069 
	C780.889587,212.422897 790.876526,213.450409 800.829346,213.754822 
	C826.830872,214.550140 852.748718,213.235764 878.600769,210.042038 
	C898.562683,207.575974 903.296570,193.925873 901.137085,180.244568 
	C900.285095,174.847107 897.291809,170.541977 892.282227,169.076721 
	C884.545532,166.813751 876.507080,164.469543 868.547058,164.283981 
	C840.397461,163.627823 812.213440,164.356262 784.069580,163.578934 
	C769.509277,163.176804 754.775818,161.828705 740.534912,158.895996 
	C722.519104,155.185913 712.202332,141.656723 709.843323,123.394150 
	C708.019897,109.277908 709.203674,95.513176 713.033325,81.937111 
	C716.816956,68.524300 725.175659,59.393787 738.631470,54.892036 
	C755.893250,49.116970 773.789062,47.446838 791.729187,47.080933 
	C818.868225,46.527412 846.046265,46.335289 873.168579,47.207947 
	C885.819641,47.614990 898.595642,50.003586 910.927124,53.059372 
	C928.059937,57.304962 937.520203,69.334106 939.785583,86.765427 
	C940.616943,93.161720 940.704346,99.654678 941.160034,106.540184 
	C925.964050,106.540184 911.401001,106.540184 896.471497,106.540184 
	C896.324951,105.600945 896.103638,104.516876 895.992798,103.421623 
	C894.685791,90.501045 890.561401,86.001068 876.706848,83.249634 
	C871.012695,82.118813 865.175781,81.706696 858.935669,80.954170 
z"/>
<path fill="#C53531" opacity="1.000000" stroke="none" 
	d="
M1248.898438,201.000000 
	C1248.898438,215.981049 1248.898438,230.462097 1248.898438,245.315353 
	C1233.531494,245.315353 1218.483154,245.315353 1202.991089,245.315353 
	C1202.991089,218.004959 1202.991089,190.910477 1202.991089,163.484558 
	C1150.992432,163.484558 1099.434448,163.484558 1047.192017,163.484558 
	C1047.192017,190.763855 1047.192017,217.966202 1047.192017,245.677109 
	C1034.890259,245.677109 1023.264587,245.670395 1011.638916,245.679123 
	C1001.351318,245.686859 1001.352905,245.694443 1001.353027,235.540909 
	C1001.353577,175.217758 1001.353333,114.894608 1001.353271,54.571457 
	C1001.353271,52.600006 1001.353271,50.628551 1001.353271,48.285851 
	C1016.638733,48.285851 1031.528809,48.285851 1046.950684,48.285851 
	C1046.950684,74.007805 1046.950684,99.739647 1046.950684,125.904114 
	C1099.025024,125.904114 1150.573730,125.904114 1202.777588,125.904114 
	C1202.777588,100.176033 1202.777588,74.311211 1202.777588,48.182266 
	C1218.354370,48.182266 1233.279663,48.182266 1248.898560,48.182266 
	C1248.898560,98.992012 1248.898560,149.746002 1248.898438,201.000000 
z"/>
<path fill="#C53431" opacity="1.000000" stroke="none" 
	d="
M1386.476074,77.453613 
	C1391.630493,68.484528 1396.660156,59.864418 1401.490845,51.134212 
	C1402.767212,48.827244 1404.177002,47.840393 1406.922241,47.859493 
	C1425.252686,47.987045 1443.585815,47.836899 1461.914429,48.059971 
	C1463.732300,48.082096 1466.331421,49.550007 1467.216675,51.112484 
	C1503.214844,114.640259 1539.058716,178.255371 1574.907593,241.867538 
	C1575.458252,242.844604 1575.825684,243.924881 1576.593140,245.673706 
	C1568.156860,245.673706 1560.254028,245.671173 1552.351318,245.674423 
	C1545.185425,245.677383 1538.006104,245.929459 1530.862061,245.537460 
	C1528.854126,245.427292 1526.156006,243.916214 1525.127319,242.224884 
	C1518.817261,231.850327 1512.835693,221.273315 1506.886841,210.683884 
	C1505.370605,207.984772 1503.736572,206.693253 1500.334229,206.704559 
	C1456.172485,206.851410 1412.010010,206.842712 1367.848145,206.723068 
	C1364.544312,206.714111 1362.753540,207.764893 1361.218262,210.612579 
	C1355.533569,221.156143 1349.702271,231.624084 1343.697754,241.988129 
	C1342.776367,243.578537 1340.671143,245.505341 1339.085815,245.530441 
	C1323.592285,245.775879 1308.092896,245.653717 1292.595093,245.612503 
	C1292.158081,245.611328 1291.721802,245.347427 1290.569824,244.974396 
	C1322.572021,189.062286 1354.424438,133.411850 1386.476074,77.453613 
M1385.404419,166.866730 
	C1384.133057,169.295746 1382.861694,171.724747 1381.487183,174.350830 
	C1416.984863,174.350830 1451.828003,174.350830 1487.447632,174.350830 
	C1469.560791,142.829346 1452.011841,111.903214 1434.040161,80.232193 
	C1417.625122,109.502846 1401.714111,137.874878 1385.404419,166.866730 
z"/>
<path fill="#C53431" opacity="1.000000" stroke="none" 
	d="
M436.761536,245.681519 
	C421.830627,245.682663 407.367493,245.682663 392.265869,245.682663 
	C393.084991,243.882278 393.572723,242.533310 394.274719,241.307007 
	C430.299103,178.376389 466.376526,115.476013 502.290985,52.482750 
	C504.322968,48.918606 506.560486,47.792263 510.501099,47.837101 
	C527.826965,48.034256 545.156982,47.994736 562.484070,47.857590 
	C565.831970,47.831085 567.776672,48.712261 569.535278,51.845230 
	C604.783752,114.640068 640.182007,177.350861 675.545898,240.080933 
	C676.418335,241.628342 677.243530,243.202347 678.584290,245.673767 
	C673.285400,245.673767 668.878723,245.672226 664.471985,245.674088 
	C653.975098,245.678543 643.475403,245.548264 632.983093,245.770081 
	C629.679993,245.839920 627.894958,244.709442 626.318665,241.867599 
	C620.429688,231.250519 614.212341,220.815903 608.288025,210.217941 
	C606.910339,207.753555 605.369568,206.725815 602.465027,206.731903 
	C557.978516,206.825119 513.491638,206.832153 469.005127,206.733765 
	C466.071472,206.727280 464.520569,207.742905 463.171448,210.211349 
	C457.667664,220.281479 451.779907,230.147278 446.484070,240.322815 
	C444.352295,244.418900 441.854401,246.539413 436.761536,245.681519 
M504.441040,135.907913 
	C497.334717,148.597519 490.228363,161.287109 482.843018,174.474869 
	C518.578857,174.474869 553.455627,174.474869 589.153809,174.474869 
	C571.276245,142.963547 553.692932,111.970886 535.684082,80.228134 
	C525.103333,99.104225 514.964417,117.192192 504.441040,135.907913 
z"/>
<path fill="#2C637E" opacity="1.000000" stroke="none" 
	d="
M1834.387207,162.375214 
	C1827.413086,171.170639 1818.437622,176.780228 1808.394165,181.752350 
	C1823.075684,202.835510 1837.485474,223.528488 1852.530884,245.134018 
	C1843.579956,245.134018 1835.678345,245.133728 1827.776733,245.134094 
	C1820.778320,245.134415 1813.766479,245.376236 1806.789795,244.987335 
	C1804.735107,244.872818 1802.070923,243.478119 1800.888794,241.815231 
	C1789.503418,225.797958 1778.317627,209.637177 1767.234619,193.408340 
	C1765.535156,190.919739 1763.772217,189.954254 1760.759277,189.995956 
	C1748.443359,190.166397 1736.123779,190.067047 1723.174072,190.067047 
	C1723.174072,208.339203 1723.174072,226.380264 1723.174072,244.775574 
	C1707.643188,244.775574 1692.739258,244.775574 1677.457397,244.775574 
	C1677.457397,179.093964 1677.457397,113.387756 1677.457397,47.326031 
	C1678.942871,47.222939 1680.385254,47.036427 1681.827637,47.035530 
	C1708.988159,47.018677 1736.149902,46.869522 1763.308716,47.080757 
	C1780.273926,47.212704 1796.741577,49.934082 1812.181152,57.632061 
	C1843.237549,73.116577 1852.738159,104.908707 1847.579468,133.267914 
	C1845.636597,143.948502 1841.567139,153.672882 1834.387207,162.375214 
M1788.760620,91.642426 
	C1783.335449,89.676064 1777.992310,86.332977 1772.469482,86.003510 
	C1756.402954,85.045052 1740.264404,85.290611 1724.153931,85.091560 
	C1723.893799,85.088348 1723.629272,85.435516 1723.235962,85.710709 
	C1723.235962,108.005013 1723.235962,130.380890 1723.235962,153.217880 
	C1736.424316,153.217880 1749.351074,153.408691 1762.267456,153.125290 
	C1767.540894,153.009628 1772.936523,152.418381 1778.024170,151.082077 
	C1790.631226,147.770691 1799.292725,139.980545 1801.434692,126.724609 
	C1803.620850,113.194366 1801.508911,100.776085 1788.760620,91.642426 
z"/>
<path fill="#2D637E" opacity="1.000000" stroke="none" 
	d="
M1983.935303,90.830788 
	C2040.594971,93.521751 2064.918945,140.341949 2057.680176,181.661987 
	C2019.881348,181.661987 1981.985107,181.661987 1943.487305,181.661987 
	C1945.156250,189.692596 1948.661743,195.961746 1954.330933,200.831406 
	C1967.727905,212.339035 1983.421509,213.653549 1999.979126,210.543716 
	C2009.431885,208.768326 2017.327148,203.967133 2024.831055,197.194763 
	C2032.641357,205.656784 2040.377930,214.038864 2048.408203,222.739105 
	C2043.175659,228.993637 2036.984985,233.592377 2030.123779,237.418289 
	C1997.171021,255.793365 1945.582275,248.993454 1919.787964,222.848404 
	C1883.053711,185.614594 1895.405029,119.762672 1943.092285,98.385506 
	C1955.960449,92.616943 1969.415527,90.252357 1983.935303,90.830788 
M1959.345581,129.748993 
	C1949.815552,135.594513 1944.802124,144.287888 1942.800415,155.442413 
	C1967.772339,155.442413 1992.242920,155.442413 2018.325317,155.442413 
	C2015.491455,149.410568 2013.770142,143.767212 2010.527710,139.204987 
	C1999.482422,123.664017 1978.669678,119.846367 1959.345581,129.748993 
z"/>
<path fill="#2D647E" opacity="1.000000" stroke="none" 
	d="
M2461.435059,101.401070 
	C2482.957031,88.796516 2505.377930,87.178101 2528.053955,95.653610 
	C2549.792969,103.778816 2559.656982,121.573631 2562.954834,143.570831 
	C2563.667480,148.323944 2563.864990,153.190475 2563.879883,158.006058 
	C2563.964844,185.155746 2563.922119,212.305847 2563.922363,239.455811 
	C2563.922607,241.093826 2563.922363,242.731842 2563.922363,244.748764 
	C2549.126221,244.748764 2534.737305,244.748764 2519.537842,244.748764 
	C2519.537842,242.839645 2519.544434,240.919388 2519.536865,238.999191 
	C2519.430908,212.020645 2519.630615,185.035660 2519.065918,158.066696 
	C2518.836426,147.104340 2514.476318,137.619766 2503.983887,132.196121 
	C2485.112061,122.441299 2460.299316,133.039017 2454.848877,153.532486 
	C2453.330078,159.243668 2452.841797,165.362915 2452.781250,171.304138 
	C2452.550049,193.954498 2452.687256,216.608643 2452.686768,239.261368 
	C2452.686768,241.047668 2452.686523,242.833954 2452.686523,244.875702 
	C2437.703125,244.875702 2423.299316,244.875702 2408.575928,244.875702 
	C2408.575928,194.256500 2408.575928,143.891724 2408.575928,93.284866 
	C2422.470703,93.284866 2436.072510,93.284866 2450.431152,93.284866 
	C2450.431152,98.492592 2450.431152,103.658485 2450.431152,109.716522 
	C2454.613281,106.553581 2457.877686,104.084755 2461.435059,101.401070 
z"/>
<path fill="#2D637E" opacity="1.000000" stroke="none" 
	d="
M2233.252441,107.152534 
	C2228.784912,116.662102 2224.477539,125.821068 2220.160889,134.999283 
	C2213.347168,132.442581 2206.971680,129.663879 2200.362061,127.655441 
	C2188.741455,124.124260 2176.802979,123.515518 2164.772705,125.149559 
	C2162.802979,125.417068 2160.838867,125.899391 2158.943604,126.505623 
	C2151.990723,128.729538 2148.130127,132.842529 2148.018555,137.980118 
	C2147.905029,143.213867 2150.528809,146.896042 2158.489502,148.878830 
	C2170.407471,151.847366 2182.603027,153.701645 2194.680908,156.027420 
	C2204.875244,157.990448 2214.851562,160.681992 2223.562500,166.567123 
	C2244.669678,180.827469 2245.411865,213.418991 2225.132568,230.630341 
	C2212.792480,241.103394 2197.958252,245.234802 2182.345459,246.754837 
	C2157.564941,249.167404 2133.506348,245.966766 2110.570068,235.880463 
	C2107.699463,234.618088 2105.004883,232.954880 2101.732178,231.213196 
	C2106.639404,220.593430 2111.418457,210.250931 2116.452881,199.355743 
	C2118.264893,200.286591 2119.815674,201.082458 2121.365967,201.879440 
	C2140.223145,211.573654 2160.146240,215.757690 2181.269043,212.996094 
	C2184.963623,212.513000 2188.658936,211.053467 2192.037842,209.399124 
	C2195.753906,207.579620 2197.399414,204.112167 2197.262695,199.888611 
	C2197.124268,195.620148 2194.501465,192.878876 2190.934814,191.732895 
	C2184.793945,189.759933 2178.453613,188.345612 2172.128418,187.023102 
	C2160.417725,184.574463 2148.375977,183.294373 2136.979248,179.849136 
	C2115.584717,173.381424 2106.535156,161.695618 2105.472412,141.804245 
	C2104.511475,123.814079 2114.975586,107.625580 2132.999512,99.173141 
	C2151.424072,90.532822 2170.941162,89.649033 2190.704346,91.450989 
	C2204.681641,92.725388 2218.326172,95.720390 2231.038086,102.046173 
	C2233.058838,103.051903 2235.165527,103.944153 2233.252441,107.152534 
z"/>
<path fill="#C53531" opacity="1.000000" stroke="none" 
	d="
M245.834106,184.140366 
	C260.135529,208.913010 274.255188,233.368378 288.761841,258.494049 
	C251.812302,258.494049 215.780136,258.494049 179.281830,258.494049 
	C179.859451,257.625000 180.216156,256.758331 180.843674,256.191467 
	C212.792236,227.331528 211.588058,181.201675 191.026779,152.806335 
	C172.685883,127.477394 152.859024,103.218544 133.487885,78.645149 
	C127.730865,71.342041 121.297691,64.571938 115.049530,57.414650 
	C124.489021,40.803429 133.837601,24.352186 143.632294,7.115913 
	C177.931747,66.525444 211.792038,125.174278 245.834106,184.140366 
z"/>
<path fill="#2C637D" opacity="1.000000" stroke="none" 
	d="
M2294.948975,242.767227 
	C2294.933350,192.815613 2294.933350,143.342972 2294.933350,93.458649 
	C2309.584717,93.458649 2323.967285,93.458649 2338.746582,93.458649 
	C2338.746582,143.765015 2338.746582,194.122803 2338.746582,245.132812 
	C2331.564453,245.132812 2324.459229,245.132401 2317.353760,245.132950 
	C2311.189209,245.133423 2305.021240,245.242569 2298.862793,245.050247 
	C2297.545898,245.009125 2296.263184,243.876160 2294.948975,242.767227 
z"/>
<path fill="#31657F" opacity="1.000000" stroke="none" 
	d="
M168.949463,199.648590 
	C170.350388,177.783676 163.435669,158.361954 153.364548,140.188080 
	C142.642120,120.838898 130.549713,102.248924 119.057022,83.326530 
	C118.061195,81.686928 117.076866,80.040321 116.862007,77.609001 
	C117.878723,78.424828 119.096375,79.082230 119.882736,80.079659 
	C139.255569,104.652107 159.233154,128.784164 177.711487,154.013855 
	C192.416367,174.091400 196.801758,197.072220 189.016815,221.269775 
	C180.894257,246.516647 156.273788,263.640106 129.918106,262.740326 
	C117.328682,262.310547 105.955040,257.760559 94.247932,249.689697 
	C136.646057,257.970398 160.612061,240.373306 168.949463,199.648590 
z"/>
<path fill="#2D647E" opacity="1.000000" stroke="none" 
	d="
M2342.179932,36.024536 
	C2346.399902,46.374969 2345.407471,55.851551 2337.913818,63.697414 
	C2329.334229,72.680458 2318.382812,73.856049 2306.988281,70.462753 
	C2295.480469,67.035645 2289.088623,57.617668 2289.650391,46.067387 
	C2290.205322,34.653332 2297.670410,26.074757 2309.336914,23.443905 
	C2323.139160,20.331438 2334.917236,24.743259 2342.179932,36.024536 
z"/>
<path fill="#4CA5D1" opacity="1.000000" stroke="none" 
	d="
M64.223373,185.000763 
	C65.689903,176.545349 67.156441,168.089935 69.132492,159.474777 
	C72.975090,162.077667 75.278954,161.616562 76.431175,157.216248 
	C76.720154,156.112625 76.979584,154.775665 77.737282,154.056885 
	C82.767059,149.285431 88.247223,144.951431 92.974434,139.906845 
	C100.472916,131.904953 111.015709,126.348984 113.986511,114.515144 
	C114.933762,115.649544 115.889648,116.794281 117.288307,118.469269 
	C119.447479,115.279884 121.275414,112.579788 123.103348,109.879700 
	C126.997795,116.039230 130.892242,122.198761 134.559006,128.927368 
	C132.528809,132.481522 130.926804,135.616531 128.848709,138.395538 
	C127.598282,140.067734 125.459763,141.043320 123.972954,142.576859 
	C117.500610,149.252609 111.262840,156.160812 104.673340,162.716690 
	C95.487160,171.855988 85.950424,180.643845 76.801559,189.819260 
	C73.567032,193.063171 71.030678,197.003235 67.666023,201.271927 
	C67.273537,200.157516 66.413544,198.396515 66.049042,196.538330 
	C65.300072,192.720016 64.816299,188.849686 64.223373,185.000763 
z"/>
<path fill="#489DC7" opacity="1.000000" stroke="none" 
	d="
M64.129562,185.457397 
	C64.816299,188.849686 65.300072,192.720016 66.049042,196.538330 
	C66.413544,198.396515 67.273537,200.157516 67.666023,201.271927 
	C71.030678,197.003235 73.567032,193.063171 76.801559,189.819260 
	C85.950424,180.643845 95.487160,171.855988 104.673340,162.716690 
	C111.262840,156.160812 117.500610,149.252609 123.972954,142.576859 
	C125.459763,141.043320 127.598282,140.067734 128.848709,138.395538 
	C130.926804,135.616531 132.528809,132.481522 134.589447,129.272827 
	C138.081802,134.184662 141.316055,139.320129 144.413345,145.045227 
	C144.047485,147.990936 144.671188,151.024109 143.435242,152.580490 
	C139.150864,157.975632 134.445816,163.090942 129.487488,167.885223 
	C119.687607,177.360901 109.590805,186.528885 99.655846,195.865692 
	C90.977409,204.021622 82.352608,212.234634 73.704109,220.422424 
	C66.226593,210.111694 63.094654,198.583435 64.129562,185.457397 
z"/>
<path fill="#4496BD" opacity="1.000000" stroke="none" 
	d="
M73.765259,220.678986 
	C82.352608,212.234634 90.977409,204.021622 99.655846,195.865692 
	C109.590805,186.528885 119.687607,177.360901 129.487488,167.885223 
	C134.445816,163.090942 139.150864,157.975632 143.435242,152.580490 
	C144.671188,151.024109 144.047485,147.990936 144.488312,145.372330 
	C147.516663,150.801651 150.333084,156.493484 152.874542,162.748688 
	C153.415100,165.215317 154.230606,167.118591 155.046112,169.021866 
	C155.124344,170.038391 155.202560,171.054901 154.981415,172.602264 
	C152.417160,175.697449 150.350586,178.476974 147.848083,180.783524 
	C141.730835,186.421783 135.250626,191.671158 129.216476,197.393387 
	C122.168457,204.077087 114.956833,210.691803 108.731285,218.104950 
	C104.158272,223.550339 95.749374,226.495834 96.762032,236.187790 
	C93.375763,235.755127 90.642265,235.405884 87.908775,235.056641 
	C87.908775,235.056625 87.988335,235.024338 87.936119,234.707565 
	C86.920853,233.927399 85.957809,233.463989 84.994766,233.000580 
	C84.644356,233.015167 84.354347,232.889893 84.017586,232.066208 
	C83.084641,231.007706 82.258850,230.507812 81.433052,230.007919 
	C81.433052,230.007919 81.050804,229.759430 80.968819,229.175873 
	C80.193718,228.081940 79.500603,227.571548 78.807480,227.061157 
	C78.254173,226.550446 77.700867,226.039719 77.064751,224.890488 
	C76.286362,223.511581 75.590782,222.771179 74.895203,222.030792 
	C74.538933,221.665710 74.182671,221.300629 73.765259,220.678986 
z"/>
<path fill="#428EB3" opacity="1.000000" stroke="none" 
	d="
M88.089935,235.351288 
	C90.642265,235.405884 93.375763,235.755127 96.762032,236.187790 
	C95.749374,226.495834 104.158272,223.550339 108.731285,218.104950 
	C114.956833,210.691803 122.168457,204.077087 129.216476,197.393387 
	C135.250626,191.671158 141.730835,186.421783 147.848083,180.783524 
	C150.350586,178.476974 152.417160,175.697449 155.017578,172.983948 
	C161.903915,194.985413 158.058670,214.771469 141.233215,231.098373 
	C127.426796,244.495712 103.551407,246.272369 88.089935,235.351288 
z"/>
<path fill="#53AFDD" opacity="1.000000" stroke="none" 
	d="
M123.078613,109.901337 
	C121.275414,112.579788 119.447479,115.279884 117.288307,118.469269 
	C115.889648,116.794281 114.933762,115.649544 113.986511,114.515144 
	C111.015709,126.348984 100.472916,131.904953 92.974434,139.906845 
	C88.247223,144.951431 82.767059,149.285431 77.737282,154.056885 
	C76.979584,154.775665 76.720154,156.112625 76.431175,157.216248 
	C75.278954,161.616562 72.975090,162.077667 69.322289,159.151138 
	C73.459457,147.559677 77.547157,135.970306 82.466370,124.745346 
	C88.665642,110.599434 95.537987,96.748268 102.144119,82.781380 
	C102.542297,81.939552 103.153740,81.198601 104.170380,79.634750 
	C110.296066,89.236832 116.063408,98.277206 121.688553,107.831879 
	C122.069099,108.877663 122.591835,109.409142 123.114571,109.940620 
	C123.114571,109.940620 123.053871,109.922981 123.078613,109.901337 
z"/>
<path fill="#428EB3" opacity="1.000000" stroke="none" 
	d="
M155.088409,168.649719 
	C154.230606,167.118591 153.415100,165.215317 152.862762,163.124756 
	C153.794174,164.717499 154.462433,166.497543 155.088409,168.649719 
z"/>
<path fill="#428EB3" opacity="1.000000" stroke="none" 
	d="
M74.948074,222.341705 
	C75.590782,222.771179 76.286362,223.511581 76.994461,224.608765 
	C76.338303,224.194565 75.669624,223.423584 74.948074,222.341705 
z"/>
<path fill="#428EB3" opacity="1.000000" stroke="none" 
	d="
M81.520859,230.280670 
	C82.258850,230.507812 83.084641,231.007706 83.927994,231.839539 
	C83.166595,231.632111 82.387634,231.092758 81.520859,230.280670 
z"/>
<path fill="#428EB3" opacity="1.000000" stroke="none" 
	d="
M85.135170,233.283356 
	C85.957809,233.463989 86.920853,233.927399 87.916397,234.745697 
	C87.057777,234.589111 86.166672,234.077621 85.135170,233.283356 
z"/>
<path fill="#4CA5D1" opacity="1.000000" stroke="none" 
	d="
M123.089996,109.644592 
	C122.591835,109.409142 122.069099,108.877663 121.777504,108.167007 
	C122.360909,108.441406 122.713165,108.894981 123.089996,109.644592 
z"/>
<path fill="#428EB3" opacity="1.000000" stroke="none" 
	d="
M78.902771,227.368744 
	C79.500603,227.571548 80.193718,228.081940 80.895004,228.960205 
	C80.268135,228.777496 79.633102,228.226898 78.902771,227.368744 
z"/>
<path fill="#FEFBFB" opacity="1.000000" stroke="none" 
	d="
M1385.603760,166.556824 
	C1401.714111,137.874878 1417.625122,109.502846 1434.040161,80.232193 
	C1452.011841,111.903214 1469.560791,142.829346 1487.447632,174.350830 
	C1451.828003,174.350830 1416.984863,174.350830 1381.487183,174.350830 
	C1382.861694,171.724747 1384.133057,169.295746 1385.603760,166.556824 
z"/>
<path fill="#FEFBFB" opacity="1.000000" stroke="none" 
	d="
M504.633240,135.594040 
	C514.964417,117.192192 525.103333,99.104225 535.684082,80.228134 
	C553.692932,111.970886 571.276245,142.963547 589.153809,174.474869 
	C553.455627,174.474869 518.578857,174.474869 482.843018,174.474869 
	C490.228363,161.287109 497.334717,148.597519 504.633240,135.594040 
z"/>
<path fill="#FDFEFE" opacity="1.000000" stroke="none" 
	d="
M1789.061768,91.846481 
	C1801.508911,100.776085 1803.620850,113.194366 1801.434692,126.724609 
	C1799.292725,139.980545 1790.631226,147.770691 1778.024170,151.082077 
	C1772.936523,152.418381 1767.540894,153.009628 1762.267456,153.125290 
	C1749.351074,153.408691 1736.424316,153.217880 1723.235962,153.217880 
	C1723.235962,130.380890 1723.235962,108.005013 1723.235962,85.710709 
	C1723.629272,85.435516 1723.893799,85.088348 1724.153931,85.091560 
	C1740.264404,85.290611 1756.402954,85.045052 1772.469482,86.003510 
	C1777.992310,86.332977 1783.335449,89.676064 1789.061768,91.846481 
z"/>
<path fill="#F8FBFC" opacity="1.000000" stroke="none" 
	d="
M1959.663086,129.559387 
	C1978.669678,119.846367 1999.482422,123.664017 2010.527710,139.204987 
	C2013.770142,143.767212 2015.491455,149.410568 2018.325317,155.442413 
	C1992.242920,155.442413 1967.772339,155.442413 1942.800415,155.442413 
	C1944.802124,144.287888 1949.815552,135.594513 1959.663086,129.559387 
z"/>
</svg>